<?xml version="1.0" encoding="UTF-8"?><svg id="Calque_1" xmlns="http://www.w3.org/2000/svg" viewBox="0 0 750 314.31"><defs><style>.cls-1{fill:#f1b102;}</style></defs><path class="cls-1" d="M121.5,145.91h1.62v.02h13.51v-.02h4.2l-4.2-1.38v-5.84c0-9.42,7.67-17.09,17.09-17.09h1.05c7.78,0,14.58,5.29,16.55,12.87l.18.69h13.69l-.18-1.08c-2.54-15.09-15.46-26.04-30.72-26.04-17.19,0-31.17,13.98-31.17,31.17v4.49l-5.89,2.22h4.28Z"/><path class="cls-1" d="M200.75,146.18h13.51v-.02h4.55l-4.55-1.49v-5.87c0-9.42,7.67-17.09,17.09-17.09h1.05c9.42,0,17.09,7.67,17.09,17.09v5.34l-5.39,2.03h5.4v.02h13.62v-.02h4.58l-4.58-1.5v-5.34c0-17.2-13.99-31.19-31.19-31.19s-31.17,13.99-31.17,31.19v4.76l-5.54,2.08h5.54v.02Z"/><polygon class="cls-1" points="281.2 146.05 294.71 146.05 294.71 146.03 298.78 146.03 294.71 144.69 294.71 108.17 281.2 108.17 281.2 143.77 275.19 146.03 281.2 146.03 281.2 146.05"/><polygon class="cls-1" points="329.95 146.05 343.56 146.05 343.56 146.03 347.9 146.03 343.56 144.6 343.56 108.17 329.95 108.17 329.95 143.91 324.3 146.03 329.95 146.03 329.95 146.05"/><polygon class="cls-1" points="362.18 145.93 375.72 145.93 375.72 145.91 379.94 145.91 375.72 144.52 375.72 108.2 362.18 108.2 362.18 143.71 356.34 145.91 362.18 145.91 362.18 145.93"/><path class="cls-1" d="M462.27,145.91h5.81v.02s46.24,0,46.24,0v-.02s2.95,0,2.95,0l-3.37-1.11-13.75-36.75h-17.9l-13.21,35.31-6.77,2.54ZM491.19,123.96l6.25,16.65h-12.47l6.23-16.65Z"/><path class="cls-1" d="M540.8,145.92h46.82s.01-.03.02-.04h4.49l-3.81-1.25c1.75-3.42,2.75-7.28,2.75-11.38,0-13.62-10.88-24.74-24.41-25.11v-.02h-25.87v34.98l-7.36,2.77h7.37v.04ZM554.36,121.67h11.47c6.36,0,11.53,5.17,11.53,11.55s-5.17,11.55-11.62,11.55h-11.38v-23.09Z"/><path class="cls-1" d="M608.2,145.91h1.33v.02h13.55v-.02h4.45l-4.45-1.46v-22.92h3.76c6.46.03,12.54,2.56,17.11,7.13,4.09,4.09,6.53,9.38,7.03,15.07l-5.79,2.18h5.89v.02h13.5v-.02h4.2l-4.26-1.4c-.72-19.91-16.88-35.94-36.85-36.44v-.03h-.62c-.1,0-.2-.01-.3-.01h-.92v.02h-2.75v-.06h-13.55v35.83l-5.6,2.11h4.27Z"/><path class="cls-1" d="M264.14,162.7h-29.11l15.5,2.68v.24h-7.49l7.49,2.09v2.22c0,9.42-7.67,17.09-17.09,17.09h-1.05c-9.42,0-17.09-7.67-17.09-17.09v-4.3h.03s-.03,0-.03,0v-2.92h-28.78v-.25h-12.84s-28.56,0-28.56,0l12.55,2.17v.75h-4.54l4.54,1.27v8.51h14.37c-2.28,6.99-8.78,11.78-16.22,11.78h-1.05c-9.42,0-17.09-7.67-17.09-17.09v-7.39h-29.5l16,2.77v.15h-7.99l7.99,2.23v1.52c0,17.2,13.98,31.19,31.17,31.19s31.19-13.99,31.19-31.19v-6.35l15.27,2.65v.22h-7.64l7.64,2.13v1.48c0,17.18,13.99,31.17,31.17,31.17s31.19-13.99,31.19-31.17v-3.58l.06-.02h-.06v-2.92Z"/><path class="cls-1" d="M330.99,165.3v.2h-7.75l7.75,2.16v2.23c0,9.42-7.67,17.09-17.09,17.09h-1.06c-9.42,0-17.09-7.67-17.09-17.09v-7.31h-29.62l16.12,2.79v.13h-8.11l8.11,2.26v1.42c0,17.19,13.99,31.18,31.18,31.18s31.18-13.99,31.18-31.18v-6.6h-29.36l15.75,2.73Z"/><polygon class="cls-1" points="376.76 162.44 347.28 162.44 363.21 165.2 363.21 165.37 355.28 165.37 363.21 167.58 363.21 200.47 376.76 200.47 376.76 200.37 412.4 200.37 412.4 186.85 376.76 186.85 376.76 162.44"/><polygon class="cls-1" points="451.36 162.44 468.03 165.33 468.01 165.37 459.36 165.37 467.2 167.55 454.87 200.47 469.78 200.47 480.93 170.68 503.54 170.68 514.69 200.47 529.59 200.47 515.36 162.44 451.36 162.44"/><path class="cls-1" d="M588.66,162.44h-35.78l.05-.02h-28.56l16.89,2.92h-8.88l9.46,2.63v32.32h13.56v-25.48h2.53l19.17,25.56h16.93l-19.88-26.51c6.16-1.84,11.32-6,14.5-11.44Z"/><path class="cls-1" d="M664.67,162.44h-28.56l15.83,2.74c0,.06-.02.12-.03.18h-7.79l7.46,2.08c-.96,4.59-3.22,8.8-6.61,12.19-4.57,4.57-10.65,7.1-17.11,7.13h-3.76v-24.33h-29.25l15.7,2.72v.21h-7.7l7.7,2.14v32.81h13.55v-.06h2.75v.02h.92c.1,0,.2-.02.3-.02h.62v-.03c20.42-.51,36.9-17.25,36.92-37.79h-.94Z"/><path class="cls-1" d="M440.55,150.55v-63.85c7.25.48,15.26,1.53,23.87,3.54v4.25l1.45,8.56,8.66,5.93v-33.96c-9.7-2.54-21.27-4.69-34.37-5.41-.93-15.42-3.57-30.62-7.86-45.17l-1.33-4.52-1.33,4.52c-4.29,14.55-6.93,29.75-7.86,45.17-13.1.71-24.67,2.86-34.37,5.41v33.96l8.66-5.93,1.45-8.56v-4.25c6.96-1.62,14.98-2.96,23.87-3.55v63.86h-243.78c-28,0-55.88.31-83.27.92.15-4.68.7-8.86,1.38-12.43h1.57l3.17-.65,2.19-3.9h-12.57c-1.03,4.77-1.88,10.55-2.06,17.12-20.64.49-40.99,1.16-60.86,1.99l-11.76.49,11.76.49c19.87.83,40.22,1.5,60.86,1.99.18,6.58,1.03,12.36,2.06,17.12h12.57l-2.19-3.9-3.17-.65h-1.57c-.87-4.56-1.26-8.74-1.38-12.43,27.38.61,55.26.92,83.27.92h243.78v136.74l13.91-46.87c3.41-11.5,5.25-25.43,5.25-39.74v-50.13h63.93c37.25,0,73.52-.68,103.46-1.94l122.04-5.15h-289.43ZM431.66,78.82c-.39,47.63-.77,95.27-1.16,142.9l-1.16-142.9c-6.7-.4-13.39-.8-20.09-1.2l20.07-1.19-.07-8.22c.52-.77,1.06-4.7,1.24-4.7s.72,3.93,1.24,4.7c-.02,2.74-.04,5.48-.07,8.22,6.69.4,13.38.8,20.07,1.19l-20.09,1.2Z"/></svg>